<?xml version="1.0" encoding="UTF-8" standalone="no"?>
<svg
   viewBox="0 0 191.1176 183.03018"
   version="1.1"
   id="svg5"
   sodipodi:docname="product_comparison.svg"
   width="191.1176"
   height="183.03018"
   inkscape:export-filename="product_comparison2.svg"
   inkscape:export-xdpi="96"
   inkscape:export-ydpi="96"
   xmlns:inkscape="http://www.inkscape.org/namespaces/inkscape"
   xmlns:sodipodi="http://sodipodi.sourceforge.net/DTD/sodipodi-0.dtd"
   xmlns="http://www.w3.org/2000/svg"
   xmlns:svg="http://www.w3.org/2000/svg">
  <defs
     id="defs5" />
  <sodipodi:namedview
     id="namedview5"
     pagecolor="#ffffff"
     bordercolor="#000000"
     borderopacity="0.25"
     inkscape:showpageshadow="2"
     inkscape:pageopacity="0.0"
     inkscape:pagecheckerboard="0"
     inkscape:deskcolor="#d1d1d1"
     inkscape:zoom="1.5625"
     inkscape:cx="256"
     inkscape:cy="256"
     inkscape:window-width="1920"
     inkscape:window-height="1011"
     inkscape:window-x="0"
     inkscape:window-y="0"
     inkscape:window-maximized="1"
     inkscape:current-layer="Product_price_comparison">
    <inkscape:page
       x="0"
       y="0"
       width="191.1176"
       height="183.03018"
       id="page2"
       margin="0"
       bleed="0" />
  </sodipodi:namedview>
  <g
     id="Product_price_comparison"
     style="fill:#000000;fill-opacity:1"
     transform="translate(-161.772,-41.10435)">
    <path
       d="m 340.7627,115.2312 c -2.9829,-2.3994 -6.6953,-5.3855 -7.3286,-7.3392 -0.7041,-2.1673 0.5722,-6.9357 1.5981,-10.767 1.8482,-6.903 3.9424,-14.7271 -0.393,-20.6843 -4.3731,-6.0083 -12.5088,-6.4256 -19.6871,-6.794 -3.9272,-0.2014 -8.8134,-0.4519 -10.6,-1.7514 -1.7343,-1.2624 -3.4565,-5.7874 -4.8413,-9.4229 -2.5752,-6.7659 -5.4951,-14.4342 -12.6465,-16.7558 -6.91,-2.2442 -13.6357,2.1259 -19.57,5.9821 -3.5547,2.3085 -7.582,4.9248 -9.9633,4.9248 -2.3813,0 -6.4087,-2.6163 -9.962,-4.9248 -5.936,-3.8552 -12.6626,-8.2278 -19.5708,-5.9821 -7.1508,2.3216 -10.0708,9.99 -12.6464,16.7553 -1.3843,3.6355 -3.107,8.1605 -4.8414,9.4224 -1.7861,1.3 -6.6723,1.5506 -10.6,1.7519 -7.1782,0.3684 -15.3139,0.7857 -19.687,6.794 -4.3354,5.9573 -2.2412,13.781 -0.393,20.6838 1.0258,3.8318 2.3022,8.6 1.5986,10.7675 -0.6338,1.9532 -4.3457,4.9393 -7.3286,7.3388 -5.6851,4.5733 -12.1284,9.7568 -12.1284,17.3893 0,7.6325 6.4433,12.8159 12.1284,17.3893 2.9829,2.3995 6.6948,5.3856 7.3286,7.3388 0.7036,2.1667 -0.5728,6.9353 -1.5986,10.767 -1.8482,6.9029 -3.9429,14.7266 0.392,20.6834 4.3731,6.0093 12.51,6.4265 19.688,6.7949 3.9263,0.2013 8.8125,0.4519 10.5987,1.7514 1.7343,1.2623 3.457,5.7873 4.8413,9.4229 2.5757,6.7654 5.4956,14.4336 12.6465,16.7558 6.9072,2.2423 13.6352,-2.1269 19.5708,-5.9821 3.5542,-2.3086 7.582,-4.9248 9.9629,-4.9248 2.3809,0 6.4086,2.6162 9.9633,4.9248 4.815,3.1278 10.15,6.5935 15.6812,6.5935 a 12.4968,12.4968 0 0 0 3.8891,-0.6114 c 7.1514,-2.3217 10.0713,-9.99 12.6465,-16.7553 1.3848,-3.6361 3.107,-8.1606 4.8413,-9.423 1.7862,-1.2994 6.6724,-1.55 10.5987,-1.7513 7.1782,-0.3684 15.3149,-0.7856 19.688,-6.7941 4.3354,-5.9567 2.24,-13.78 0.393,-20.6832 -1.0259,-3.8318 -2.3022,-8.6 -1.5981,-10.7685 0.6333,-1.9532 4.3457,-4.9393 7.3286,-7.3388 5.6841,-4.5734 12.1274,-9.7567 12.1274,-17.3893 0,-7.6326 -6.4428,-12.8155 -12.1269,-17.3884 z m -96.499,44.6433 a 5.4994,5.4994 0 0 1 -5.21,3.7383 h -6.6309 a 5.4981,5.4981 0 0 1 -5.2041,-3.7217 l -16.7807,-49.11 h 11.6235 l 13.667,39.9954 13.5254,-39.9954 h 11.6113 z m 42.26,3.7383 h -20.9378 v -11 h 20.9375 a 5.8235,5.8235 0 0 0 0,-11.647 h -4.5888 a 15.5962,15.5962 0 1 1 0,-31.1924 H 302.84 v 11 h -20.9054 a 4.5962,4.5962 0 1 0 0,9.1924 h 4.5888 a 16.8235,16.8235 0 0 1 0,33.647 z"
       id="path5"
       style="fill:#ffffff;fill-opacity:1"
       inkscape:export-filename="path5.svg"
       inkscape:export-xdpi="96"
       inkscape:export-ydpi="96" />
  </g>
</svg>
